 http://www.imdb.com/title/tt0473075/

Release Date: 28 May 2010 (USA)

Genre: Action | Adventure | Fantasy | Romance

Plot: A young fugitive prince and princess must stop a villain who unknowingly threatens to destroy the world with a special dagger that enables the magic sand inside to reverse time.

Cast:
Jake Gyllenhaal ... Dastan
Gemma Arterton ... Tamina
Ben Kingsley ... Nizam
Alfred Molina ... Sheik Amar
Steve Toussaint ... Seso
Toby Kebbell ... Garsiv
Richard Coyle ... Tus
Ronald Pickup ... King Sharaman
Reece Ritchie ... Bis
Gísli Örn Garðarsson ... Hassansin Leader
Claudio Pacifico ... Hassansin Porcupine
Thomas DuPont ... Hassansin Whip Man
Dave Pope ... Hassansin Giant Scimitar
Domonkos Pardanyi ... Hassansin Double-Bladed Halberd
Massimilano Ubaldi ... Hassansin Long Razor

Screenshots
 
http://www.imagebam.com/image/e95dc694867390

File Name

Prince of Persia The Sands of Time 536p BRRip H264.mp4

File Size
Format : MPEG-4
Format profile : Base Media
Codec ID : isom
File size : 2.22 GiB
Duration : 1h 55mn
Overall bit rate : 2 740 Kbps

Video
ID : 1
Format : AVC
Format/Info : Advanced Video Codec
Format profile : High@L4.1
Format settings, CABAC : Yes
Format settings, ReFrames : 3 frames
Codec ID : avc1
Codec ID/Info : Advanced Video Coding
Duration : 1h 55mn
Bit rate mode : Variable
Bit rate : 2 099 Kbps
Maximum bit rate : 8 960 Kbps
Width : 1 280 pixels
Height : 536 pixels
Display aspect ratio : 2.35:1
Frame rate mode : Constant
Frame rate : 23.976 fps
Resolution : 24 bits
Colorimetry : 4:2:0
Scan type : Progressive
Bits/(Pixel*Frame) : 0.128
Stream size : 1.70 GiB (76%)

Audio #1
ID : 2
Format : AAC
Format/Info : Advanced Audio Codec
Format version : Version 4
Format profile : LC
Format settings, SBR : No
Codec ID : 40
Duration : 1h 55mn
Bit rate mode : Variable
Bit rate : 192 Kbps
Maximum bit rate : 199 Kbps
Channel(s) : 2 channels
Channel positions : L R
Sampling rate : 48.0 KHz
Resolution : 16 bits
Stream size : 158 MiB (7%)

Audio #2
ID : 3
Format : AAC
Format/Info : Advanced Audio Codec
Format version : Version 4
Format profile : LC
Format settings, SBR : No
Codec ID : 40
Duration : 1h 55mn
Bit rate mode : Variable
Bit rate : 448 Kbps
Maximum bit rate : 458 Kbps
Channel(s) : 6 channels
Channel positions : Front: L C R, Rear: L R, LFE
Sampling rate : 48.0 KHz
Resolution : 16 bits
Stream size : 371 MiB (16%)

English SRT : External

Language : English